<?xml version="1.0" encoding="UTF-8" standalone="no"?>
<!-- Created with Inkscape (http://www.inkscape.org/) -->

<svg
   width="156.44989mm"
   height="156.44987mm"
   viewBox="0 0 156.44989 156.44988"
   version="1.1"
   id="svg1"
   xmlns:xlink="http://www.w3.org/1999/xlink"
   xmlns="http://www.w3.org/2000/svg"
   xmlns:svg="http://www.w3.org/2000/svg">
  <defs
     id="defs1">
    <linearGradient
       id="linearGradient122">
      <stop
         style="stop-color:#534600;stop-opacity:1;"
         offset="0"
         id="stop122" />
      <stop
         style="stop-color:#ffd63e;stop-opacity:1;"
         offset="1"
         id="stop123" />
    </linearGradient>
    <linearGradient
       id="linearGradient115">
      <stop
         style="stop-color:#00005c;stop-opacity:1;"
         offset="0"
         id="stop115" />
      <stop
         style="stop-color:#2c7fff;stop-opacity:1;"
         offset="1"
         id="stop116" />
    </linearGradient>
    <linearGradient
       xlink:href="#linearGradient115"
       id="linearGradient116"
       x1="106.76183"
       y1="251.46106"
       x2="109.44766"
       y2="74.867577"
       gradientUnits="userSpaceOnUse" />
    <radialGradient
       xlink:href="#linearGradient122"
       id="radialGradient123"
       cx="78.432671"
       cy="208.81496"
       fx="78.432671"
       fy="208.81496"
       r="76.423737"
       gradientTransform="matrix(1.3523895,-1.0161621,0.94178791,1.2534065,-242.40791,30.587132)"
       gradientUnits="userSpaceOnUse" />
    <radialGradient
       xlink:href="#linearGradient122"
       id="radialGradient2"
       gradientUnits="userSpaceOnUse"
       gradientTransform="matrix(1.3523895,-1.0161621,0.94178791,1.2534065,-242.40791,30.587132)"
       cx="78.432671"
       cy="208.81496"
       fx="78.432671"
       fy="208.81496"
       r="76.423737" />
    <radialGradient
       xlink:href="#linearGradient122"
       id="radialGradient3"
       gradientUnits="userSpaceOnUse"
       gradientTransform="matrix(1.3523895,-1.0161621,0.94178791,1.2534065,-242.40791,30.587132)"
       cx="78.432671"
       cy="208.81496"
       fx="78.432671"
       fy="208.81496"
       r="76.423737" />
    <radialGradient
       xlink:href="#linearGradient122"
       id="radialGradient4"
       gradientUnits="userSpaceOnUse"
       gradientTransform="matrix(1.3523895,-1.0161621,0.94178791,1.2534065,-242.40791,30.587132)"
       cx="78.432671"
       cy="208.81496"
       fx="78.432671"
       fy="208.81496"
       r="76.423737" />
  </defs>
  <g
     id="layer2"
     transform="translate(-26.858239,-98.032819)">
    <circle
       style="fill:#ffffff;stroke-width:0.264583"
       id="path1"
       cx="105.08318"
       cy="176.25775"
       r="78.224869" />
    <circle
       style="fill:url(#linearGradient116);fill-rule:nonzero;stroke-width:0.253228"
       id="path1-3"
       cx="105.08318"
       cy="176.25775"
       r="74.867577" />
  </g>
  <g
     id="layer3"
     transform="translate(-27.139423,-96.056158)">
    <g
       id="g121"
       style="mix-blend-mode:normal;fill:url(#radialGradient123)">
      <path
         style="fill:url(#radialGradient2);fill-opacity:1;fill-rule:nonzero;stroke-width:0.261121"
         id="path119"
         d="m 55.494405,230.95134 c -0.127804,-0.0303 -0.257169,-0.0546 -0.383412,-0.091 -0.365808,-0.10559 -0.867185,-0.28087 -1.199747,-0.44923 -0.258001,-0.13063 -1.003421,-0.57691 -0.749808,-0.43771 2.542662,1.39556 3.096509,1.92013 1.542,0.66053 -1.858245,-1.69484 -2.555432,-4.12048 -3.205831,-6.48234 -0.255094,-1.00877 -0.467666,-2.02785 -0.615542,-3.05859 -0.07553,-0.52647 -0.161694,-1.05929 -0.130901,-1.59162 0.0187,-0.0127 0.04419,-0.0575 0.0561,-0.0381 0.03995,0.0652 0.01252,0.16091 0.05714,0.22286 0.0667,0.0925 0.360788,0.27318 0.261272,0.21899 -0.924361,-0.50334 -1.821193,-1.0574 -2.741006,-1.56925 -0.30806,-0.17144 0.595145,0.38036 0.905359,0.54774 1.5234,0.822 3.062762,1.6131 4.594142,2.41965 1.697482,0.44462 3.023992,0.84373 4.801008,1.06255 1.196585,0.14736 2.403296,0.19401 3.606594,0.26538 2.719442,0.16131 5.163396,0.25477 7.890726,0.19789 1.333088,-0.0279 2.663962,-0.12359 3.995941,-0.18539 5.685932,-0.4473 11.364487,-1.11804 16.981624,-2.13119 0.968618,-0.17471 1.931939,-0.37845 2.897907,-0.56768 3.355634,-0.71223 6.709239,-1.46282 10.013279,-2.39639 1.77582,-0.50175 2.54985,-0.77287 4.30293,-1.34376 4.14152,-1.42358 8.30654,-2.76393 12.5192,-3.95292 4.28351,-1.1412 8.56386,-2.29744 12.89006,-3.26127 2.69546,-0.57636 5.41161,-1.06835 8.16488,-1.2203 2.26039,0.0812 4.51066,0.354 6.7668,0.52144 2.85358,0.18787 5.7112,0.29472 8.56969,0.19685 1.70031,-0.11779 3.40969,-0.18313 5.09499,-0.45916 0.98978,-0.16211 1.11342,-0.21702 2.06118,-0.46435 1.54595,-0.41107 2.95781,-1.1474 4.29315,-2.02123 1.48354,-1.08305 2.86898,-2.2932 4.25555,-3.49887 1.24919,-1.16722 2.40733,-2.42987 3.5459,-3.70705 0.88501,-0.98296 1.65037,-2.06732 2.44937,-3.12137 0.63987,-0.86596 1.31752,-1.70175 1.94351,-2.5783 0.29529,-0.42297 0.62657,-0.81639 0.92358,-1.2381 0,0 -3.31481,-1.98396 -3.31481,-1.98396 v 0 c -0.28831,0.42465 -0.6083,0.82445 -0.89877,1.24755 -0.61788,0.87644 -1.2642,1.73082 -1.91235,2.58428 -0.78604,1.05062 -1.53609,2.13213 -2.40686,3.11411 -1.10468,1.28357 -2.25325,2.53294 -3.49854,3.67771 -1.3671,1.20717 -2.73108,2.42788 -4.25256,3.43508 -1.30795,0.83211 -2.67866,1.54922 -4.17935,1.95444 -2.30383,0.59687 -4.66759,0.80468 -7.03954,0.90651 -2.85444,0.0749 -5.7092,-0.0136 -8.55654,-0.23548 -1.27936,-0.10358 -1.38728,-0.10632 -2.65195,-0.23221 -1.39966,-0.13935 -2.80025,-0.35633 -4.21082,-0.29323 -2.70685,0.22977 -5.369,0.7869 -8.01535,1.39565 -4.31212,1.01146 -8.58268,2.19085 -12.87259,3.29392 -4.21781,1.1721 -8.36812,2.56848 -12.51589,3.97241 -4.65721,1.50925 -9.377061,2.81057 -14.171657,3.79206 -6.502027,1.28141 -13.060866,2.31001 -19.671815,2.79015 -1.328246,0.0579 -2.655444,0.15173 -3.984736,0.17373 -2.429509,0.0401 -5.503136,-0.0606 -7.929564,-0.25927 -1.249092,-0.10233 -2.499061,-0.2167 -3.737765,-0.40938 -2.07298,-0.32244 -3.031553,-0.68312 -4.9605,-1.27502 1.485856,1.05032 2.482622,1.68445 0.837871,0.69256 -1.258807,-0.75915 -2.502599,-1.54419 -3.770713,-2.28719 -0.113747,-0.0667 -0.238286,-0.14212 -0.369556,-0.13863 -0.294413,0.008 -0.334264,0.20134 -0.437692,0.40151 -0.0051,0.57843 0.10644,1.14383 0.201873,1.71393 0.176058,1.05175 0.405415,2.0925 0.665629,3.126 0.667043,2.4278 1.269691,4.83269 3.076403,6.67142 1.917365,1.68314 0.697116,0.69258 4.792309,3.12181 0.782812,0.46435 1.633094,0.77853 2.516551,0.97587 z" />
      <path
         style="fill:url(#radialGradient3);fill-opacity:1;fill-rule:nonzero;stroke-width:0.26141"
         id="path120"
         d="m 152.87044,115.24415 c -0.78161,0.26741 -1.48204,0.71076 -2.17122,1.16885 -1.49932,1.1025 -2.8759,2.37821 -4.25518,3.63669 -1.74181,1.67816 -3.55737,3.33574 -4.99292,5.31991 -0.29288,0.40483 -0.54966,0.83675 -0.82448,1.25512 -1.1343,1.94301 -1.96129,4.06468 -2.46132,6.27935 -0.23813,1.05466 -0.61521,3.40169 -0.78885,4.4381 -0.72238,4.45428 -1.1554,8.96825 -2.17412,13.36652 -0.24701,1.06652 -0.54712,2.11892 -0.82069,3.17838 -1.60111,5.70416 -4.11106,11.0784 -7.35853,15.95913 -0.7041,1.05822 -1.47142,2.06912 -2.20714,3.10368 -3.75955,4.91341 -8.20259,9.30535 -13.33308,12.63916 -0.92938,0.60391 -1.90419,1.12823 -2.85628,1.69235 -3.81098,2.02655 -7.9322,3.29299 -12.119352,4.1411 -2.56593,0.51972 -3.707937,0.62815 -6.299801,0.97467 -3.886909,0.41641 -7.79924,0.75155 -11.710946,0.67935 -2.194036,-0.0405 -2.743468,-0.14297 -4.912947,-0.36696 -3.177051,-0.52095 -6.349821,-1.20359 -9.420047,-2.21682 -2.103827,-0.6943 -2.748475,-1.01226 -4.804413,-1.87414 -2.40502,-1.08977 -4.775262,-2.2629 -7.06805,-3.59184 -0.729291,-0.42271 -1.471172,-0.82699 -2.164341,-1.31131 -0.230343,-0.16095 0.975707,0.52572 0.767202,0.33512 -0.595081,-0.54397 -1.298803,-0.94312 -1.948203,-1.41468 -2.523194,-1.91264 -4.966935,-3.97986 -7.065222,-6.39842 -0.295139,-0.34018 -0.568503,-0.70025 -0.852757,-1.05038 -0.993816,-1.3302 -1.84689,-2.77233 -2.525651,-4.30244 -0.325205,-0.71992 -0.492443,-1.48778 -0.593081,-2.27152 -0.04663,-0.6103 0.0088,-1.22219 0.03857,-1.83191 0.02545,-0.76893 0.108777,-1.53407 0.164091,-2.30098 0.01513,-0.63565 0.104033,-1.26153 0.202913,-1.88735 0.08846,-0.57559 -0.135426,-1.11362 -0.369972,-1.6209 -0.297368,-0.60956 -0.709518,-1.14279 -1.116679,-1.6744 -0.401664,-0.52449 -0.753088,-1.08514 -1.204307,-1.56592 -0.414089,-0.39388 -0.816666,-0.79999 -1.213209,-1.21301 -0.463426,-0.4377 -0.938337,-0.86608 -1.443457,-1.25103 -0.274146,-0.19294 -0.139456,-0.0969 -0.404163,-0.28804 0,0 -3.558238,-1.44804 -3.558238,-1.44804 v 0 c 0.276768,0.1777 0.13907,0.0818 0.412281,0.28885 0.535363,0.33297 0.990132,0.77812 1.474338,1.18462 0.407695,0.39981 0.777793,0.83923 1.209221,1.21338 0.480966,0.45201 0.864493,0.96968 1.238218,1.52027 0.388901,0.52674 0.824687,1.02215 1.13169,1.60913 0.244447,0.41453 0.469616,0.88462 0.466931,1.38181 -0.08874,0.64156 -0.178943,1.28222 -0.186855,1.93199 -0.0525,0.76707 -0.1365,1.53104 -0.189947,2.29735 -0.02992,0.63306 -0.07516,1.26695 -0.05715,1.901 0.09679,0.82452 0.235021,1.6414 0.580757,2.39879 0.70607,1.59241 1.61737,3.07709 2.641336,4.46754 0.292362,0.36247 0.572309,0.73625 0.877086,1.08742 2.14191,2.46796 4.642154,4.5751 7.210441,6.53548 0.654088,0.47862 1.287021,0.99033 1.962261,1.43585 4.547896,3.00071 9.220094,5.81188 14.195087,7.9747 1.968562,0.81355 2.849225,1.22188 4.869619,1.88037 3.075489,1.00237 6.260199,1.6455 9.439961,2.15338 0.809734,0.0764 1.617632,0.17812 2.429203,0.22902 4.70737,0.29522 9.430497,-0.22154 14.108543,-0.70064 2.494194,-0.34064 3.854684,-0.48307 6.324351,-0.99387 4.201388,-0.86899 8.334168,-2.18505 12.147968,-4.24187 2.56092,-1.55036 3.25818,-1.86814 5.64878,-3.74253 0.92951,-0.72879 1.82307,-1.50717 2.70491,-2.29778 2.85525,-2.55988 5.51555,-5.34697 7.82685,-8.45366 0.74748,-1.03557 1.52821,-2.04592 2.24242,-3.10672 3.29116,-4.88821 5.82724,-10.28235 7.48297,-16.00116 0.29087,-1.05679 0.60961,-2.10568 0.87259,-3.17039 1.07957,-4.37081 1.56679,-8.86727 2.30922,-13.3054 0.6753,-3.73848 1.32383,-7.23799 3.32257,-10.49882 0.27105,-0.40804 0.5262,-0.82809 0.81315,-1.22413 1.4281,-1.97108 3.22258,-3.61517 4.98354,-5.24948 1.41021,-1.21912 2.82502,-2.44712 4.35553,-3.50039 0.68966,-0.42662 1.3963,-0.84055 2.18562,-1.02899 z" />
      <path
         style="fill:url(#radialGradient4);fill-opacity:1;fill-rule:nonzero;stroke-width:0.264583"
         id="path121"
         d="m 66.788381,106.29675 c -1.379342,1.19638 -2.572687,2.6001 -3.837046,3.91633 -1.75818,1.80139 -3.531235,3.59653 -5.126799,5.54706 -1.15883,1.41664 -1.37668,1.79147 -2.413759,3.28334 -1.698154,2.57332 -2.98418,5.42275 -3.804264,8.39593 -0.145944,0.52912 -0.258585,1.06686 -0.387877,1.60029 -0.409469,1.97286 -0.593759,4.00024 -0.349205,6.00802 0.139684,1.14681 0.320702,1.75362 0.591037,2.86845 0.5778,2.01358 1.409592,4.05648 2.889787,5.59192 0.325819,0.33798 0.702691,0.62272 1.054037,0.93407 2.458198,1.47391 3.112651,1.90156 6.440225,3.54229 0.772591,0.38095 3.038449,1.13745 3.857644,1.37891 0.66458,0.19588 1.330354,0.39499 2.010185,0.52864 0.816723,0.16056 1.648039,0.23503 2.472057,0.35254 2.294665,0.153 3.936918,0.35018 6.273978,0.1117 1.431223,-0.14605 2.848451,-0.41581 4.259114,-0.69823 3.029688,-0.60656 6.782736,-1.60307 9.7209,-2.50906 1.633447,-0.50368 3.241987,-1.08484 4.862978,-1.62727 4.608422,-1.79176 9.052307,-3.96212 13.281347,-6.52281 2.03173,-1.23022 4.59676,-2.93228 6.48356,-4.42164 0.88378,-0.69762 1.70546,-1.47047 2.55819,-2.2057 3.71525,-3.44504 6.82287,-7.44904 9.74965,-11.5641 1.92608,-2.79691 3.73631,-5.67384 5.45488,-8.60246 0.57811,-1.01574 1.14408,-2.03869 1.64923,-3.09307 0.17456,-0.36434 0.51358,-1.09172 0.64316,-1.49762 0.0713,-0.22348 0.11044,-0.45601 0.16565,-0.68402 0.18259,-1.36741 -0.0688,-2.21032 -0.94726,-3.24672 -1.36719,-1.30872 -3.13024,-2.123 -4.82952,-2.9364 l 3.05107,2.43937 v 0 c 1.36914,0.70619 0.77106,0.40665 -2.54613,-1.52006 -0.12902,-0.0749 0.25802,0.15061 0.38007,0.23642 0.12156,0.0855 0.23306,0.1844 0.34959,0.2766 0.92803,0.90536 1.26649,1.5936 1.14498,2.92531 -0.043,0.21467 -0.0708,0.43297 -0.12908,0.64401 -0.4448,1.61029 -1.40147,3.1239 -2.13208,4.60963 -1.65565,2.95266 -3.46916,5.80985 -5.32081,8.643 -2.83888,4.12496 -5.87593,8.13507 -9.47953,11.63134 -0.82925,0.73969 -1.62934,1.51345 -2.48776,2.21908 -5.79362,4.7624 -12.490094,8.32124 -19.456459,11.0301 -1.615638,0.53995 -3.216555,1.12612 -4.846915,1.61984 -4.560988,1.38122 -9.464839,2.5987 -14.235192,2.92915 -2.477865,0.17164 -3.977092,-0.0509 -6.389822,-0.26788 -2.372723,-0.41307 -2.377157,-0.3315 -4.527307,-0.98811 -0.653343,-0.19952 -1.300993,-0.41861 -1.941637,-0.65576 -0.641971,-0.23764 -3.945491,-2.28684 -4.604996,-2.10338 -0.518226,0.14415 1.071781,0.21804 0.576026,0.42677 -0.533484,0.22461 3.0552,1.36342 2.550095,1.08072 -0.350491,-0.2881 -1.349282,-0.6371 -1.674638,-0.95331 -1.5124,-1.46988 -2.372018,-3.48534 -2.994961,-5.45672 -0.278617,-1.07739 -0.475337,-1.70783 -0.625433,-2.81677 -0.267144,-1.97375 -0.10188,-3.97441 0.266536,-5.92282 0.120584,-0.52942 0.22357,-1.06316 0.361754,-1.58826 0.777142,-2.95321 2.031585,-5.76949 3.69697,-8.3278 0.376463,-0.54706 0.736341,-1.10591 1.129387,-1.64117 1.898457,-2.58539 4.171273,-4.85612 6.472172,-7.07863 0.658214,-0.64681 1.312492,-1.29762 1.973376,-1.9417 0.547941,-0.53401 1.10168,-1.11334 1.732489,-1.55477 0.09273,-0.0649 0.196995,-0.11153 0.295494,-0.16729 z" />
    </g>
  </g>
  <g
     id="layer4"
     transform="translate(-27.139423,-96.056158)">
    <path
       id="path1-36"
       style="fill:#ffffff;stroke-width:0.264583"
       d="m 105.36411,96.056149 a 78.224869,78.224869 0 0 0 -78.224687,78.225201 78.224869,78.224869 0 0 0 78.224687,78.22468 78.224869,78.224869 0 0 0 78.2252,-78.22468 78.224869,78.224869 0 0 0 -78.2252,-78.225201 z m 0,3.357411 a 74.867577,74.867577 0 0 1 74.86778,74.86779 74.867577,74.867577 0 0 1 -74.86778,74.86726 74.867577,74.867577 0 0 1 -74.867269,-74.86726 74.867577,74.867577 0 0 1 74.867269,-74.86779 z" />
  </g>
</svg>
